<?xml version="1.0" encoding="UTF-8" standalone="no"?>
<!DOCTYPE svg PUBLIC "-//W3C//DTD SVG 1.1//EN" "http://www.w3.org/Graphics/SVG/1.1/DTD/svg11.dtd">
<!-- Created with Vectornator (http://vectornator.io/) -->
<svg height="100%" stroke-miterlimit="10" style="fill-rule:nonzero;clip-rule:evenodd;stroke-linecap:round;stroke-linejoin:round;" version="1.1" viewBox="0 0 1024 1024" width="100%" xml:space="preserve" xmlns="http://www.w3.org/2000/svg" xmlns:vectornator="http://vectornator.io" xmlns:xlink="http://www.w3.org/1999/xlink">
<defs/>
<g id="Layer-2" vectornator:layerName="Layer 2">
<path d="M54.3403 512C54.3403 246.37 259.242 31.0339 512 31.0339C764.758 31.0339 969.66 246.37 969.66 512C969.66 777.63 764.758 992.966 512 992.966C259.242 992.966 54.3403 777.63 54.3403 512Z" fill="#16213e" fill-rule="nonzero" opacity="1" stroke="none"/>
</g>
<g id="Layer-1-copy" vectornator:layerName="Layer 1 copy">
<path d="M361.204 376.847C361.204 376.847 361.204 318.589 401.567 295.285C452.02 266.156 452.02 336.066 452.02 336.066L452.02 405.976C452.02 405.976 452.02 452.583 411.658 475.886C361.204 505.015 361.204 435.105 361.204 435.105" fill="#ffffff" fill-rule="nonzero" opacity="1" stroke="none"/>
<path d="M360.272 731.647C360.272 731.647 360.272 673.389 400.635 650.086C451.088 620.956 451.088 690.866 451.088 690.866L451.088 760.776C451.088 760.776 451.088 807.383 410.725 830.686C360.272 859.815 360.272 789.905 360.272 789.905" fill="#ffffff" fill-rule="nonzero" opacity="1" stroke="none"/>
<path d="M563.017 248.679C563.017 248.679 563.017 202.072 603.38 178.769C643.742 155.465 643.742 202.072 643.742 202.072L643.742 668.139L643.742 668.139C643.742 668.139 643.742 714.745 603.38 738.049C563.017 761.352 563.017 691.442 563.017 691.442L563.017 574.925C563.017 574.925 563.017 528.319 522.655 551.622C482.292 574.925 421.748 609.88 421.748 609.88C421.748 609.88 381.386 633.184 381.386 586.577C381.386 539.97 421.748 516.667 421.748 516.667L522.655 458.409C522.655 458.409 563.017 435.105 563.017 388.499" fill="#ffffff" fill-rule="nonzero" opacity="1" stroke="none"/>
<path d="M887.958 462.084C890.125 461.651 892.263 460.853 894.137 459.681" fill="#ffffff" fill-rule="nonzero" opacity="1" stroke="none"/>
</g>
<g id="Layer-1" vectornator:layerName="Layer 1">
<path d="M381.19 390.816C381.19 390.816 381.19 332.558 421.552 309.255C472.006 280.126 472.006 350.036 472.006 350.036L472.006 419.946C472.006 419.946 472.006 466.552 431.643 489.856C381.19 518.985 381.19 449.075 381.19 449.075" fill="#e94560" fill-rule="nonzero" opacity="1" stroke="none"/>
<path d="M380.258 745.617C380.258 745.617 380.258 687.358 420.62 664.055C471.074 634.926 471.074 704.836 471.074 704.836L471.074 774.746C471.074 774.746 471.074 821.353 430.711 844.656C380.258 873.785 380.258 803.875 380.258 803.875" fill="#e94560" fill-rule="nonzero" opacity="1" stroke="none"/>
<path d="M583.003 262.648C583.003 262.648 583.003 216.041 623.365 192.738C663.728 169.435 663.728 216.041 663.728 216.041L663.728 682.108L663.728 682.108C663.728 682.108 663.728 728.715 623.365 752.018C583.003 775.321 583.003 705.411 583.003 705.411L583.003 588.895C583.003 588.895 583.003 542.288 542.64 565.591C502.278 588.895 441.734 623.85 441.734 623.85C441.734 623.85 401.371 647.153 401.371 600.546C401.371 553.94 441.734 530.636 441.734 530.636L542.64 472.378C542.64 472.378 583.003 449.075 583.003 402.468" fill="#e94560" fill-rule="nonzero" opacity="1" stroke="none"/>
</g>
</svg>
